<svg width="464" height="72" viewBox="0 0 464 72" fill="none" xmlns="http://www.w3.org/2000/svg">
<path d="M9.21 7.05957V24.1396L0 33.3496V65.3296H46.08V48.2496L55.3 39.0396V7.05957H9.21ZM18.43 56.1196H9.21V39.0396H18.43V56.1196ZM18.43 16.2696H27.65V33.3496H18.43V16.2696ZM36.86 56.1196H27.65V39.0396H36.86V56.1196ZM46.08 33.3496H36.86V16.2696H46.08V33.3496Z" fill="#F2F2F2"/>
<path d="M398.121 30.2399C397.631 15.5799 378.951 9.78986 370.191 21.4199C370.161 21.4599 370.191 21.1799 370.191 16.2499H360.711V56.0999H371.491L371.651 32.3299C371.651 21.7399 387.361 21.7399 387.361 32.3299V56.0999H398.141C398.141 29.1399 398.171 30.2399 398.121 30.2399Z" fill="#F2F2F2"/>
<path d="M353.321 16.2695H342.551V56.1195H353.321V16.2695Z" fill="#F2F2F2"/>
<path d="M260.569 16.2704V19.9004C258.619 18.3504 256.399 17.1604 254.029 16.3904C242.989 12.7904 231.119 18.8304 227.519 29.8704C223.919 40.9104 229.959 52.7804 240.999 56.3804C247.699 58.5604 255.049 57.2404 260.569 52.8704V56.1204H270.049V16.2704H260.569ZM259.159 39.5704C257.269 45.3904 251.009 48.5804 245.189 46.6804C239.369 44.7904 236.179 38.5304 238.079 32.7104C239.969 26.8904 246.229 23.7004 252.049 25.6004C252.049 25.6004 252.049 25.6004 252.059 25.6004C257.869 27.5004 261.049 33.7504 259.159 39.5604" fill="#F2F2F2"/>
<path d="M435.301 6.22V18.87C433.711 17.81 431.981 16.97 430.161 16.38C419.121 12.79 407.261 18.83 403.671 29.88C400.081 40.92 406.121 52.78 417.171 56.37C423.811 58.53 431.081 57.25 436.591 52.96V56.1H446.071V0L435.311 6.22H435.301ZM435.301 39.57C433.411 45.39 427.151 48.58 421.331 46.68C415.511 44.79 412.321 38.53 414.221 32.71C416.111 26.89 422.371 23.7 428.191 25.6C428.191 25.6 428.191 25.6 428.201 25.6C434.011 27.5 437.191 33.75 435.301 39.56V39.57Z" fill="#F2F2F2"/>
<path d="M347.931 0C351.231 0 353.901 2.67 353.901 5.97C353.901 9.27 351.231 11.94 347.931 11.94C344.631 11.94 341.961 9.27 341.961 5.97C341.961 2.67 344.641 0 347.931 0Z" fill="#F2F2F2"/>
<path d="M286.951 21.6698C289.601 17.6698 294.091 15.2798 298.891 15.3198C307.131 15.3198 310.771 22.4598 310.771 22.4598C313.201 18.0298 317.871 15.2998 322.921 15.3398C330.591 15.3298 336.811 21.5398 336.831 29.1998V56.0998H326.051V31.1498C326.051 27.4198 323.021 24.3898 319.281 24.3998C315.551 24.3998 312.531 27.4198 312.531 31.1498V56.0998H301.771V31.1498C301.681 27.4198 298.571 24.4598 294.841 24.5598C291.241 24.6498 288.341 27.5498 288.251 31.1498V56.0998H277.471V16.2698H286.951V21.6698Z" fill="#F2F2F2"/>
<path d="M81.2305 21.6796C83.8805 17.6796 88.3705 15.2896 93.1705 15.3296C101.41 15.3296 105.05 22.4696 105.05 22.4696C107.48 18.0396 112.15 15.3096 117.2 15.3496C124.87 15.3396 131.09 21.5496 131.11 29.2096V56.1096H120.33V31.1596C120.33 27.4296 117.3 24.3996 113.57 24.3996C109.84 24.3996 106.81 27.4296 106.81 31.1596V56.1096H96.0305V31.1596C96.0305 27.4296 93.0005 24.3996 89.2705 24.3996C85.5405 24.3996 82.5105 27.4296 82.5105 31.1596V56.1096H71.7305V16.2796H81.2105V21.6796H81.2305Z" fill="#F2F2F2"/>
<path d="M181.82 57.4003C182.68 59.7103 187.79 71.7303 200.93 71.7303C215.47 71.7303 221.99 59.1403 221.99 52.3303C221.99 45.5203 222.06 16.2603 222.06 16.2603H212.61V20.0003C209.04 16.9603 204.5 15.3103 199.81 15.3303C188.82 15.1703 179.77 23.9503 179.61 34.9403C179.45 45.9303 188.23 54.9803 199.22 55.1403C199.42 55.1403 199.61 55.1403 199.81 55.1403C207.38 55.1403 211.6 51.1303 211.6 51.1303C211.65 51.5203 211.67 51.9103 211.66 52.3003C211.7 53.3403 211.57 54.3703 211.25 55.3603C210.28 58.3803 207.08 62.5803 201.46 62.5803C196.69 62.5803 193.49 58.6403 192.6 57.4103L181.82 57.3903V57.4003ZM201.46 45.5103C195.79 45.5103 191.2 40.9203 191.2 35.2503C191.2 29.5803 195.79 24.9903 201.46 24.9903C207.13 24.9903 211.72 29.5803 211.72 35.2503C211.72 40.9203 207.13 45.5103 201.46 45.5103Z" fill="#F2F2F2"/>
<path d="M155.511 15.3496C144.251 15.3496 135.121 24.4796 135.131 35.7396C135.131 46.9996 144.261 56.1296 155.521 56.1196C164.231 56.1196 171.981 50.5796 174.811 42.3296H163.991C160.891 46.8996 154.681 48.0896 150.111 44.9996C147.961 43.5396 146.461 41.2996 145.931 38.7496V38.6996H175.681C177.311 27.5596 169.601 17.1996 158.461 15.5696C157.491 15.4296 156.511 15.3596 155.521 15.3496M146.141 31.3096C146.141 31.3096 148.191 24.1996 155.711 24.1996C163.231 24.1996 165.281 31.3096 165.281 31.3096H146.151H146.141Z" fill="#F2F2F2"/>
<path d="M463.399 5.96C463.399 9.28 460.759 11.95 457.439 11.95C454.119 11.95 451.449 9.25 451.449 5.96C451.449 2.67 454.119 0 457.439 0C460.759 0 463.399 2.64 463.399 5.96ZM462.279 5.96C462.279 3.29 460.109 1.15 457.439 1.15C454.769 1.15 452.569 3.29 452.569 5.96C452.569 8.63 454.739 10.8 457.439 10.8C460.139 10.8 462.279 8.66 462.279 5.96ZM458.709 6.63L460.099 9H458.889L457.589 6.76H456.519V9H455.369V2.81H457.899C459.069 2.81 459.939 3.67 459.939 4.84C459.939 5.72 459.449 6.37 458.699 6.63M456.519 5.72H457.819C458.429 5.72 458.829 5.36 458.829 4.81C458.829 4.26 458.439 3.87 457.819 3.87H456.519V5.72Z" fill="#F2F2F2"/>
</svg>
